<svg xmlns="http://www.w3.org/2000/svg" width="512" height="512" viewBox="0 0 512 512">
  <defs>
    <linearGradient id="bg" x1="0%" y1="0%" x2="100%" y2="100%">
      <stop offset="0%" stop-color="#7c3aed"/>
      <stop offset="100%" stop-color="#4338ca"/>
    </linearGradient>
    <linearGradient id="shine" x1="0%" y1="0%" x2="0%" y2="100%">
      <stop offset="0%" stop-color="#ffffff" stop-opacity="0.15"/>
      <stop offset="100%" stop-color="#ffffff" stop-opacity="0"/>
    </linearGradient>
  </defs>

  <!-- Arka plan -->
  <rect width="512" height="512" rx="110" ry="110" fill="url(#bg)"/>
  <!-- Üst parlaklık -->
  <rect width="512" height="256" rx="110" ry="110" fill="url(#shine)"/>

  <!-- Görev listesi ikonu -->
  <!-- Sol onay kutuları -->
  <rect x="108" y="158" width="52" height="52" rx="12" fill="white" opacity="0.25"/>
  <polyline points="120,184 136,200 152,172" fill="none" stroke="white" stroke-width="6" stroke-linecap="round" stroke-linejoin="round"/>

  <rect x="108" y="230" width="52" height="52" rx="12" fill="white" opacity="0.25"/>
  <polyline points="120,256 136,272 152,244" fill="none" stroke="white" stroke-width="6" stroke-linecap="round" stroke-linejoin="round"/>

  <rect x="108" y="302" width="52" height="52" rx="12" fill="white" opacity="0.12"/>

  <!-- Sağ çizgiler -->
  <rect x="184" y="174" width="220" height="16" rx="8" fill="white" opacity="0.9"/>
  <rect x="184" y="246" width="180" height="16" rx="8" fill="white" opacity="0.9"/>
  <rect x="184" y="318" width="200" height="16" rx="8" fill="white" opacity="0.35"/>

  <!-- Alt küçük nokta detaylar -->
  <circle cx="184" cy="370" r="8" fill="white" opacity="0.3"/>
  <rect x="204" y="363" width="100" height="14" rx="7" fill="white" opacity="0.2"/>
</svg>
